<svg width="214" height="214" viewBox="0 0 214 214" fill="none" xmlns="http://www.w3.org/2000/svg">
<rect width="214" height="214" rx="16" fill="#DFE1F1"/>
<g clip-path="url(#clip0_607_244)">
<path d="M125.667 116.066C125.523 116.211 125.351 116.326 125.163 116.404C124.974 116.483 124.772 116.523 124.567 116.523C124.363 116.523 124.16 116.483 123.972 116.404C123.783 116.326 123.611 116.211 123.467 116.066L121.268 113.866C121.123 113.722 121.008 113.551 120.929 113.362C120.851 113.173 120.81 112.971 120.81 112.766C120.81 112.562 120.851 112.36 120.929 112.171C121.008 111.982 121.123 111.811 121.268 111.667L125.667 107.267C125.811 107.123 125.983 107.008 126.171 106.93C126.36 106.852 126.562 106.811 126.767 106.811C126.971 106.811 127.173 106.852 127.362 106.93C127.551 107.008 127.722 107.123 127.866 107.267L130.066 109.467C130.211 109.611 130.326 109.782 130.404 109.971C130.483 110.16 130.523 110.362 130.523 110.567C130.523 110.771 130.483 110.974 130.404 111.162C130.326 111.351 130.211 111.522 130.066 111.667L125.667 116.066ZM102.334 92.7323C102.189 92.8773 102.018 92.9923 101.829 93.0708C101.641 93.1493 101.438 93.1897 101.234 93.1897C101.029 93.1897 100.827 93.1493 100.638 93.0708C100.449 92.9923 100.278 92.8773 100.134 92.7323L97.9344 90.5328C97.7895 90.3887 97.6745 90.2173 97.596 90.0286C97.5175 89.8398 97.4771 89.6374 97.4771 89.433C97.4771 89.2286 97.5175 89.0262 97.596 88.8375C97.6745 88.6487 97.7895 88.4774 97.9344 88.3332L102.334 83.9341C102.478 83.7895 102.649 83.6748 102.838 83.5966C103.027 83.5183 103.229 83.478 103.433 83.478C103.638 83.478 103.84 83.5183 104.029 83.5966C104.217 83.6748 104.389 83.7895 104.533 83.9341L106.733 86.1337C106.878 86.2778 106.993 86.4492 107.071 86.6379C107.15 86.8266 107.19 87.029 107.19 87.2335C107.19 87.4379 107.15 87.6403 107.071 87.829C106.993 88.0177 106.878 88.1891 106.733 88.3332L102.334 92.7323Z" fill="#66757F"/>
<path d="M82.111 113.222C85.2221 113.222 99.2221 114.778 99.2221 114.778C99.2221 114.778 100.778 128.778 100.778 131.889C100.778 135 97.6666 135 96.111 133.445C94.5555 131.889 89.8888 124.111 89.8888 124.111C89.8888 124.111 82.111 119.445 80.5555 117.889C78.9999 116.333 78.9999 113.222 82.111 113.222ZM85.2221 88.3941C89.8888 88.3334 124.111 89.889 124.111 89.889C124.111 89.889 125.548 124.111 125.607 128.778C125.667 133.445 121.309 135.003 119.6 128.779C117.89 122.556 111.667 102.333 111.667 102.333C111.667 102.333 89.9588 95.4625 85.2144 94.397C78.9999 93.0001 80.5539 88.4532 85.2221 88.3941Z" fill="#55ACEE"/>
<path d="M121 83.6667C124.111 80.5556 131.889 79 133.444 80.5556C135 82.1111 133.444 89.8889 130.333 93C127.222 96.1111 100.778 121 100.778 121C100.778 121 90.6665 128 88.3331 125.667C85.9998 123.333 92.9998 113.222 92.9998 113.222C92.9998 113.222 117.889 86.7778 121 83.6667Z" fill="#CCD6DD"/>
<path d="M100.778 113.222C100.778 113.222 101.555 114 94.5554 121C87.5554 128 86.7777 127.222 86.7777 127.222C86.7777 127.222 85.9999 126.445 92.9999 119.445C99.9999 112.445 100.778 113.222 100.778 113.222ZM124.111 85.2223C125.349 85.2223 126.536 85.714 127.411 86.5891C128.286 87.4643 128.778 88.6513 128.778 89.889H130.03C130.207 89.399 130.333 88.8856 130.333 88.3334C130.333 87.0957 129.842 85.9088 128.966 85.0336C128.091 84.1584 126.904 83.6667 125.667 83.6667C125.114 83.6667 124.601 83.7927 124.111 83.9701V85.2223Z" fill="#66757F"/>
</g>
<defs>
<clipPath id="clip0_607_244">
<rect width="56" height="56" fill="white" transform="translate(79 79)"/>
</clipPath>
</defs>
</svg>
